<?xml version="1.0" standalone="no"?>
<!DOCTYPE svg PUBLIC "-//W3C//DTD SVG 20010904//EN"
 "http://www.w3.org/TR/2001/REC-SVG-20010904/DTD/svg10.dtd">
<svg version="1.0" xmlns="http://www.w3.org/2000/svg"
 width="1135.000000pt" height="815.000000pt" viewBox="0 0 1135.000000 815.000000"
 preserveAspectRatio="xMidYMid meet">

<g transform="translate(0.000000,815.000000) scale(0.100000,-0.100000)"
fill="#000000" stroke="none">
<path d="M5430 7500 c-21 -21 -22 -28 -15 -138 8 -125 18 -152 60 -152 37 0
55 31 54 91 0 81 -14 188 -25 198 -23 22 -53 22 -74 1z m68 -12 c7 -7 12 -26
12 -44 0 -26 -8 -39 -39 -63 -45 -36 -51 -30 -51 48 0 51 13 71 45 71 12 0 26
-5 33 -12z m16 -129 c10 -50 7 -104 -6 -117 -7 -7 -21 -12 -33 -12 -31 0 -45
19 -45 62 0 30 7 44 33 68 17 16 35 30 38 30 4 0 9 -14 13 -31z"/>
<path d="M5597 7502 c-14 -15 -17 -40 -17 -129 0 -61 3 -119 6 -128 11 -27 53
-38 80 -20 23 15 24 20 24 140 0 99 -3 127 -16 139 -21 21 -57 20 -77 -2z m64
-2 c13 -7 19 -21 19 -45 0 -27 -7 -39 -39 -64 -21 -17 -41 -28 -45 -24 -13 14
-6 112 10 127 18 19 28 20 55 6z m19 -180 c0 -58 -3 -71 -19 -80 -27 -14 -37
-13 -55 6 -28 27 -20 81 16 115 50 45 58 39 58 -41z"/>
<path d="M5782 7496 c-15 -20 -20 -47 -25 -133 -6 -124 3 -153 52 -153 48 0
58 23 65 152 7 110 6 118 -13 137 -28 28 -55 26 -79 -3z m73 -12 c9 -9 14 -23
11 -31 -3 -8 -6 -21 -6 -28 0 -17 -69 -66 -82 -59 -4 3 -8 24 -8 47 0 72 45
110 85 71z m5 -160 c0 -83 -21 -108 -74 -88 -17 6 -23 79 -8 99 13 19 67 53
74 49 5 -3 8 -30 8 -60z"/>
<path d="M5256 7484 c-10 -9 -15 -30 -14 -52 l1 -37 4 35 c3 19 9 41 15 47 13
17 50 17 68 1 12 -11 12 -10 1 5 -17 21 -54 22 -75 1z"/>
<path d="M5957 7483 c-10 -12 -19 -56 -27 -132 -11 -111 -10 -114 11 -137 27
-28 49 -30 78 -6 18 14 23 34 32 135 10 108 9 120 -7 138 -21 24 -66 25 -87 2z
m67 -6 c15 -11 17 -22 12 -53 -3 -21 -6 -69 -5 -105 0 -50 -5 -71 -19 -89 -18
-22 -22 -23 -47 -12 -26 12 -27 15 -21 60 4 26 6 76 6 111 -1 86 29 121 74 88z"/>
<path d="M6136 7464 c-9 -8 -16 -16 -16 -17 -1 -1 -7 -51 -14 -111 -15 -113
-10 -148 19 -160 63 -24 88 12 103 150 10 93 10 111 -3 131 -18 27 -65 31 -89
7z m74 -19 c18 -21 5 -76 -23 -97 l-22 -17 23 6 c22 5 22 4 16 -53 -4 -33 -11
-67 -16 -76 -11 -22 -51 -23 -68 -3 -18 21 -3 92 23 111 16 12 17 15 5 11 -16
-6 -18 1 -18 51 0 32 5 63 12 70 17 17 53 15 68 -3z"/>
<path d="M5072 7458 c-7 -7 -11 -28 -10 -47 l1 -36 4 35 c3 19 9 41 15 47 13
16 6 17 -10 1z"/>
<path d="M5341 7433 c0 -18 4 -67 10 -108 11 -72 11 -78 -9 -97 -20 -20 -22
-20 -46 -4 -21 13 -26 24 -26 59 0 24 6 49 13 57 10 12 9 12 -5 1 -14 -11 -17
-9 -21 16 -3 15 -3 -6 -1 -47 3 -61 8 -78 25 -92 28 -23 52 -23 74 2 15 16 16
30 10 92 -4 40 -10 91 -15 113 -7 38 -8 39 -9 8z"/>
<path d="M6316 7431 c-19 -21 -55 -169 -56 -228 0 -39 22 -63 60 -63 41 0 55
27 79 150 19 101 19 106 2 130 -23 32 -62 37 -85 11z m64 -21 c12 -12 19 -24
16 -28 -3 -5 -12 -50 -21 -102 -18 -106 -27 -122 -64 -118 -24 3 -26 7 -25 48
3 97 22 194 40 207 24 17 30 17 54 -7z"/>
<path d="M5162 7410 c-1 -13 -19 -41 -39 -62 -44 -45 -32 -51 15 -7 27 24 32
36 29 62 -3 24 -4 26 -5 7z"/>
<path d="M6486 7378 c-8 -13 -27 -72 -43 -131 l-28 -109 28 -24 c57 -49 87
-22 121 107 30 112 32 142 10 163 -23 24 -71 20 -88 -6z m79 -18 c3 -11 -1
-53 -10 -92 -10 -40 -20 -86 -24 -102 -4 -16 -16 -35 -27 -43 -18 -12 -24 -11
-45 5 -21 18 -22 22 -11 59 8 27 20 43 39 51 22 9 23 11 6 8 -16 -3 -23 1 -23
12 0 26 21 95 32 110 16 19 56 15 63 -8z"/>
<path d="M5172 7325 c0 -16 2 -22 5 -12 2 9 2 23 0 30 -3 6 -5 -1 -5 -18z"/>
<path d="M6656 7328 c-8 -13 -29 -69 -47 -125 -31 -97 -32 -102 -16 -127 19
-29 61 -35 90 -13 10 6 32 62 51 122 34 111 34 136 2 157 -23 16 -66 8 -80
-14z m68 -4 c9 -3 16 -17 16 -30 0 -42 -20 -70 -58 -82 l-37 -11 34 6 34 5 -7
-43 c-11 -69 -27 -94 -60 -94 -45 0 -54 25 -29 82 11 26 26 70 32 98 17 71 33
85 75 69z"/>
<path d="M4963 7318 c-37 -42 -37 -54 0 -19 21 19 37 36 37 38 0 10 -19 0 -37
-19z"/>
<path d="M5072 7325 c-1 -11 3 -38 7 -60 l9 -40 0 35 c0 19 -4 46 -8 60 -6 20
-8 21 -8 5z"/>
<path d="M5182 7265 c0 -16 2 -22 5 -12 2 9 2 23 0 30 -3 6 -5 -1 -5 -18z"/>
<path d="M6826 7268 c-8 -13 -30 -66 -49 -118 -43 -120 -35 -159 35 -160 35 0
47 19 92 144 32 86 34 101 23 125 -17 37 -79 43 -101 9z m68 -4 c20 -8 20 -43
2 -86 -8 -18 -23 -60 -33 -92 -20 -66 -43 -87 -70 -70 -25 16 -28 41 -8 83 12
28 23 37 43 39 14 1 31 7 36 12 6 6 -1 6 -22 1 -37 -11 -41 0 -21 60 20 57 35
68 73 53z"/>
<path d="M4782 7257 c-25 -27 -30 -46 -6 -27 15 13 38 50 31 50 -2 0 -13 -10
-25 -23z"/>
<path d="M4620 7220 c-12 -17 -20 -33 -18 -35 2 -3 15 9 27 26 13 17 21 33 18
35 -3 3 -15 -9 -27 -26z"/>
<path d="M5172 7210 c-15 -24 -45 -26 -66 -4 -9 8 -16 11 -16 4 0 -6 11 -16
25 -22 30 -13 75 3 75 27 0 20 -3 19 -18 -5z"/>
<path d="M6998 7203 c-9 -10 -35 -62 -58 -117 -48 -110 -48 -143 3 -160 42
-15 57 -1 105 98 53 108 62 149 37 176 -22 25 -67 26 -87 3z m76 -25 c14 -23
-16 -88 -41 -88 -15 0 -15 -2 -4 -9 12 -8 12 -16 -4 -58 -31 -82 -56 -100 -91
-62 -18 20 -18 21 8 72 15 29 32 68 38 87 23 76 66 102 94 58z"/>
<path d="M6988 7073 c7 -3 16 -2 19 1 4 3 -2 6 -13 5 -11 0 -14 -3 -6 -6z"/>
<path d="M5011 7179 c-9 -15 -20 -20 -36 -16 -14 2 -22 0 -19 -4 9 -16 40 -10
59 11 10 11 16 22 14 25 -3 2 -11 -5 -18 -16z"/>
<path d="M4772 7134 c10 -10 20 -16 22 -13 3 3 -5 11 -17 18 -21 13 -21 12 -5
-5z"/>
<path d="M4836 7135 c-11 -8 -15 -15 -9 -15 6 0 16 7 23 15 16 19 11 19 -14 0z"/>
<path d="M7168 7130 c-23 -14 -120 -207 -116 -232 2 -12 15 -30 30 -41 44 -33
68 -14 127 99 56 107 63 145 29 168 -26 18 -46 20 -70 6z m53 -20 c24 -13 24
-44 1 -78 -10 -15 -27 -47 -36 -72 -26 -67 -44 -90 -70 -90 -40 0 -52 25 -33
66 9 19 24 37 32 40 8 4 12 10 10 15 -8 13 35 108 54 119 20 12 19 12 42 0z"/>
<path d="M7168 6993 c7 -3 16 -2 19 1 4 3 -2 6 -13 5 -11 0 -14 -3 -6 -6z"/>
<path d="M4145 7029 c-9 -17 -15 -33 -13 -35 3 -2 12 12 21 31 21 43 13 47 -8
4z"/>
<path d="M5455 7039 c-549 -31 -1063 -204 -1515 -510 -177 -120 -271 -199
-451 -378 -254 -255 -432 -506 -585 -827 -36 -75 -64 -137 -62 -139 2 -2 152
-8 333 -14 182 -6 380 -13 440 -16 l110 -4 65 96 c349 521 872 854 1510 960
148 25 494 25 640 0 401 -67 758 -223 1055 -462 167 -133 354 -342 475 -527
44 -67 45 -68 90 -68 107 0 759 21 798 26 23 3 42 11 42 17 0 7 -24 62 -53
122 -162 338 -332 579 -592 841 -266 267 -534 456 -875 616 -224 105 -563 207
-803 242 -87 13 -452 39 -482 34 -5 0 -68 -4 -140 -9z m155 -98 c0 -27 3 -62
6 -78 l6 -30 -83 -6 c-45 -4 -84 -8 -86 -10 -2 -2 4 -121 14 -265 9 -144 14
-264 10 -268 -4 -4 -42 -9 -85 -12 l-78 -4 -17 253 c-10 140 -20 261 -23 270
-3 10 -12 15 -22 14 -9 -2 -47 -6 -83 -9 l-67 -5 -7 75 c-4 42 -4 79 0 82 6 6
370 37 473 41 l42 1 0 -49z m224 -88 c-2 -71 -7 -231 -10 -357 l-6 -228 -30 6
c-17 3 -55 6 -86 6 l-55 0 7 278 c4 152 9 310 12 350 l6 72 83 0 84 0 -5 -127z
m370 76 c100 -17 183 -33 185 -35 5 -4 -18 -146 -24 -152 -4 -4 -163 23 -207
34 -13 4 -19 -6 -27 -47 -6 -29 -10 -53 -9 -54 2 -2 48 -10 103 -19 55 -10
103 -20 107 -24 9 -10 -15 -145 -27 -149 -6 -2 -56 5 -112 15 l-101 19 -16
-86 c-9 -47 -19 -108 -22 -134 -4 -27 -12 -51 -18 -53 -12 -5 -154 21 -163 29
-3 3 14 108 37 234 22 125 48 266 56 313 24 137 25 140 42 140 9 0 97 -14 196
-31z m-1291 -73 c48 -18 74 -41 100 -91 26 -49 28 -137 5 -180 l-16 -31 119
-134 c65 -74 119 -137 119 -140 0 -3 -39 -19 -87 -34 l-87 -29 -29 34 c-135
155 -159 179 -183 179 -13 0 -24 -6 -24 -13 0 -7 18 -67 40 -132 22 -65 40
-120 40 -121 0 -5 -162 -56 -166 -52 -4 4 -201 585 -218 645 -6 19 3 24 116
61 175 58 203 62 271 38z m1669 -32 l76 -25 -103 -307 c-57 -169 -108 -319
-113 -334 l-11 -26 -78 24 c-42 14 -79 27 -82 29 -3 4 69 223 181 548 22 64
43 117 47 117 3 0 40 -11 83 -26z m331 -135 c56 -28 139 -71 185 -96 l82 -45
-36 -69 -37 -69 -103 55 c-57 30 -107 55 -112 55 -4 0 -18 -20 -30 -45 l-22
-45 104 -52 104 -52 -34 -68 c-19 -37 -39 -68 -44 -68 -6 0 -52 21 -103 47
-50 26 -94 49 -97 51 -3 1 -18 -22 -32 -52 l-27 -55 83 -45 c45 -25 95 -50
109 -55 15 -6 27 -15 27 -21 0 -8 -56 -127 -64 -137 -6 -7 -376 190 -376 199
0 13 309 618 316 618 2 0 50 -23 107 -51z m-2518 -42 c19 -35 35 -67 35 -70 0
-3 -45 -31 -100 -62 -54 -31 -101 -59 -103 -63 -3 -4 7 -26 22 -49 l26 -42 94
55 c52 30 99 53 106 50 12 -4 75 -108 75 -124 0 -4 -43 -31 -95 -61 -52 -29
-95 -57 -95 -61 0 -10 51 -100 56 -100 3 0 53 27 111 61 58 33 109 57 113 52
5 -4 24 -36 43 -70 l35 -61 -186 -107 c-162 -93 -187 -105 -197 -91 -10 13
-17 8 -44 -34 -88 -136 -262 -227 -387 -201 -116 23 -219 106 -272 219 -23 48
-27 70 -27 142 0 72 5 94 27 140 35 71 115 148 202 196 59 32 70 35 80 23 6
-9 29 -37 50 -63 42 -50 41 -57 -13 -75 -182 -60 -240 -231 -119 -347 56 -54
77 -64 135 -64 79 0 164 64 214 163 l21 40 55 -54 56 -54 -25 45 c-14 25 -85
149 -157 276 -72 128 -131 236 -131 240 1 7 345 213 357 214 1 0 18 -29 38
-63z m3056 -294 c170 -150 221 -250 197 -385 -13 -71 -38 -116 -104 -187 -77
-84 -145 -116 -244 -116 -116 1 -188 40 -369 202 l-44 39 229 266 c126 147
231 267 232 267 2 1 48 -38 103 -86z"/>
<path d="M4758 6693 c-22 -5 -22 -4 -1 -69 15 -50 17 -52 42 -42 56 21 80 75
49 106 -12 12 -56 14 -90 5z"/>
<path d="M7343 6162 c-17 -20 -72 -84 -121 -142 -86 -100 -90 -106 -74 -124
53 -58 154 -73 217 -30 101 68 140 168 94 244 -22 37 -69 90 -78 90 -3 0 -20
-17 -38 -38z"/>
<path d="M7305 7009 c-56 -88 -95 -167 -95 -192 0 -17 9 -32 26 -43 45 -30 70
-11 135 101 32 55 58 108 59 118 0 27 -37 57 -70 57 -24 0 -35 -8 -55 -41z
m83 9 c17 -17 15 -46 -6 -76 -10 -15 -31 -53 -47 -85 -33 -66 -55 -83 -85 -67
-27 15 -25 46 6 87 20 26 33 33 62 35 l37 1 -37 4 -38 4 21 42 c12 23 26 48
31 55 13 15 40 16 56 0z"/>
<path d="M3987 6945 c-24 -50 -20 -58 4 -12 11 22 19 41 17 43 -3 2 -12 -12
-21 -31z"/>
<path d="M7484 6946 c-29 -20 -134 -189 -134 -215 0 -24 33 -61 54 -61 31 0
49 16 95 84 53 78 81 129 81 146 0 15 -46 60 -62 60 -8 0 -23 -6 -34 -14z m66
-36 c9 -17 6 -28 -18 -63 -16 -23 -41 -63 -56 -89 -35 -63 -61 -77 -89 -49
-18 17 -19 23 -8 43 16 30 76 127 96 156 20 28 61 29 75 2z"/>
<path d="M7613 6828 c-11 -13 -43 -56 -71 -95 -64 -90 -67 -124 -15 -152 36
-18 63 2 133 102 64 92 74 123 50 152 -19 23 -73 19 -97 -7z m75 -10 c18 -18
14 -40 -12 -73 -20 -25 -30 -29 -62 -26 -22 1 -40 4 -42 6 -1 1 12 26 29 54
33 52 61 65 87 39z m-48 -115 c0 -3 -14 -28 -31 -55 -32 -49 -61 -62 -87 -36
-19 19 -14 39 15 70 20 21 36 28 65 28 21 0 38 -3 38 -7z"/>
<path d="M7774 6732 c-23 -14 -154 -186 -154 -202 0 -32 30 -60 65 -60 31 0
41 8 105 88 80 98 89 121 66 157 -16 25 -57 34 -82 17z m60 -28 c22 -22 21
-27 -19 -76 -20 -24 -50 -63 -68 -88 -35 -48 -59 -59 -82 -40 -24 20 -17 56
15 83 17 14 30 29 30 33 0 4 17 29 37 55 39 51 61 60 87 33z"/>
<path d="M3561 6674 c0 -11 3 -14 6 -6 3 7 2 16 -1 19 -3 4 -6 -2 -5 -13z"/>
<path d="M7898 6618 c-8 -7 -45 -48 -81 -90 -72 -84 -83 -120 -49 -151 40 -37
66 -23 152 79 44 52 80 104 80 115 0 45 -66 75 -102 47z m69 -34 c13 -20 10
-26 -39 -84 -114 -135 -103 -126 -132 -112 -36 16 -33 48 7 86 17 17 45 50 61
74 45 66 75 77 103 36z"/>
<path d="M7858 6493 c7 -3 16 -2 19 1 4 3 -2 6 -13 5 -11 0 -14 -3 -6 -6z"/>
<path d="M3421 6544 c0 -11 3 -14 6 -6 3 7 2 16 -1 19 -3 4 -6 -2 -5 -13z"/>
<path d="M8045 6500 c-37 -14 -175 -166 -175 -192 0 -37 23 -61 59 -61 27 0
45 13 106 73 88 87 105 119 82 154 -18 27 -44 36 -72 26z m55 -39 c5 -11 10
-21 10 -24 0 -2 -35 -40 -78 -85 -77 -81 -104 -96 -130 -70 -22 22 -13 39 66
119 80 82 112 96 132 60z"/>
<path d="M3292 6450 c0 -14 2 -19 5 -12 2 6 2 18 0 25 -3 6 -5 1 -5 -13z"/>
<path d="M3281 6404 c0 -11 3 -14 6 -6 3 7 2 16 -1 19 -3 4 -6 -2 -5 -13z"/>
<path d="M8078 6289 c-69 -63 -88 -87 -88 -107 0 -33 8 -45 37 -60 32 -18 50
-7 141 82 87 86 100 116 64 149 -35 32 -63 20 -154 -64z m144 36 c10 -22 8
-29 -17 -55 -16 -17 -38 -30 -49 -31 -13 0 -16 -3 -8 -6 20 -8 -66 -93 -93
-93 -26 0 -45 18 -45 41 0 23 60 69 85 65 11 -2 14 -1 8 1 -20 7 -16 14 29 60
48 49 73 54 90 18z"/>
<path d="M8242 6192 c-102 -76 -142 -119 -142 -151 0 -31 30 -61 61 -61 18 0
105 65 172 129 44 41 49 81 15 105 -33 24 -51 20 -106 -22z m92 2 c9 -8 16
-21 16 -28 0 -13 -116 -120 -163 -151 -28 -18 -29 -18 -49 2 -26 27 -17 56 25
82 18 11 53 40 80 65 51 50 67 55 91 30z"/>
<path d="M3062 6200 c0 -14 2 -19 5 -12 2 6 2 18 0 25 -3 6 -5 1 -5 -13z"/>
<path d="M3050 6156 c0 -8 4 -17 9 -20 5 -4 7 3 4 14 -6 23 -13 26 -13 6z"/>
<path d="M8304 6023 c-102 -76 -104 -78 -104 -115 0 -34 39 -63 73 -54 25 6
173 116 195 143 18 24 15 50 -8 73 -33 33 -61 24 -156 -47z m140 25 c19 -26 7
-52 -32 -72 -15 -8 -48 -33 -72 -55 -55 -50 -88 -61 -107 -36 -19 27 -16 41
15 65 15 12 55 43 90 71 35 27 70 49 77 49 8 0 21 -10 29 -22z"/>
<path d="M2943 6040 c0 -25 2 -35 4 -22 2 12 2 32 0 45 -2 12 -4 2 -4 -23z"/>
<path d="M5609 5933 l-24 -28 28 24 c25 23 32 31 24 31 -2 0 -14 -12 -28 -27z"/>
<path d="M2843 5905 c0 -27 2 -38 4 -22 2 15 2 37 0 50 -2 12 -4 0 -4 -28z"/>
<path d="M8404 5879 c-97 -66 -114 -83 -114 -111 0 -26 36 -58 64 -58 25 0
178 97 209 132 22 27 22 53 -3 78 -32 32 -61 24 -156 -41z m140 22 c22 -24 12
-46 -32 -73 -21 -12 -60 -39 -88 -60 -28 -21 -57 -38 -65 -38 -22 0 -39 21
-39 47 0 28 68 67 91 52 8 -5 19 -9 24 -8 6 0 0 5 -13 13 -26 14 -26 15 42 60
46 31 57 32 80 7z"/>
<path d="M5297 5884 c-21 -19 -37 -39 -35 -44 2 -4 20 12 41 36 46 53 45 55
-6 8z"/>
<path d="M5015 5813 c-14 -21 -25 -42 -25 -48 0 -9 9 3 45 58 26 41 9 32 -20
-10z"/>
<path d="M6165 5820 c-13 -6 -15 -9 -5 -9 8 0 22 4 30 9 18 12 2 12 -25 0z"/>
<path d="M2753 5750 c0 -25 2 -35 4 -22 2 12 2 32 0 45 -2 12 -4 2 -4 -23z"/>
<path d="M8527 5752 c-111 -70 -142 -97 -145 -124 -3 -29 30 -68 58 -68 17 0
179 97 213 127 23 21 22 58 -3 83 -29 29 -57 24 -123 -18z m108 -2 c22 -24 14
-46 -26 -68 -17 -9 -53 -34 -81 -54 -69 -51 -88 -56 -110 -28 -23 29 -10 55
40 78 20 9 39 20 42 23 13 16 94 69 105 69 7 0 20 -9 30 -20z"/>
<path d="M6438 5713 c7 -3 16 -2 19 1 4 3 -2 6 -13 5 -11 0 -14 -3 -6 -6z"/>
<path d="M2660 5602 l5 -47 3 39 c2 21 0 42 -5 47 -4 4 -6 -13 -3 -39z"/>
<path d="M8582 5573 c-112 -60 -134 -84 -114 -128 21 -46 57 -43 160 11 91 48
132 82 132 111 0 18 -45 63 -62 63 -7 0 -59 -26 -116 -57z m143 -8 c0 -25 -7
-34 -47 -55 -25 -14 -67 -38 -93 -53 -51 -31 -89 -31 -97 1 -8 27 7 48 44 63
18 7 56 28 83 46 65 44 110 43 110 -2z"/>
<path d="M6673 5557 c-5 -8 98 2 107 10 2 2 -19 3 -49 1 -29 -2 -55 -7 -58
-11z"/>
<path d="M4471 5534 c0 -11 3 -14 6 -6 3 7 2 16 -1 19 -3 4 -6 -2 -5 -13z"/>
<path d="M2145 5500 c10 -32 13 -36 25 -24 7 7 3 17 -11 30 -22 19 -22 19 -14
-6z"/>
<path d="M9098 5483 c-29 -34 -32 -46 -10 -34 11 6 22 20 25 31 6 25 4 25 -15
3z"/>
<path d="M8644 5411 c-109 -52 -125 -71 -101 -121 20 -41 60 -38 166 14 51 25
99 51 107 57 20 16 17 63 -4 82 -28 26 -59 20 -168 -32z m154 17 c28 -28 -5
-78 -50 -78 -9 0 -37 -14 -62 -31 -60 -40 -110 -49 -125 -21 -16 29 -5 47 40
67 38 17 42 17 77 1 29 -13 33 -13 18 -1 -11 8 -24 15 -29 15 -16 0 5 20 41
40 43 22 73 25 90 8z"/>
<path d="M1775 5403 c-62 -31 -104 -69 -120 -108 -9 -23 -11 -306 -9 -1289 4
-1375 0 -1280 58 -1328 24 -20 119 -72 158 -87 26 -10 27 -8 44 42 10 29 17
57 16 64 -2 6 7 27 18 45 29 47 26 58 -17 59 -47 2 -18 6 110 14 l97 7 0 33
c0 24 5 35 18 38 9 2 -17 3 -58 1 -122 -6 -418 -11 -382 -6 30 3 32 6 33 45
l2 42 7 -40 7 -40 2 37 1 37 53 5 c28 3 144 10 257 16 217 12 307 21 277 28
-16 3 -18 13 -15 77 l3 74 -67 26 c-56 22 -68 31 -68 49 0 27 65 294 74 303 3
4 8 4 10 2 4 -4 -46 -249 -59 -290 -5 -13 12 -23 77 -47 138 -50 230 -67 358
-66 290 2 498 134 576 364 25 74 26 242 1 322 -24 78 -91 174 -162 231 -35 28
-127 81 -222 127 -230 112 -286 173 -254 280 40 133 231 160 465 65 33 -13 61
-23 62 -22 3 2 64 294 64 303 0 11 -109 53 -185 70 -103 24 -293 25 -382 1
-76 -20 -171 -67 -216 -107 -19 -16 -36 -27 -39 -25 -3 3 -11 -3 -19 -12 -13
-17 -13 -17 5 -3 13 10 8 -2 -13 -33 -68 -100 -85 -151 -89 -278 -7 -184 28
-273 156 -389 51 -47 99 -77 229 -141 243 -119 296 -179 264 -299 -36 -133
-187 -171 -417 -104 -94 27 -183 66 -165 72 8 3 11 80 11 244 0 228 1 240 18
227 9 -8 0 7 -21 33 -21 26 -52 78 -70 115 -28 60 -32 80 -35 174 -3 80 0 121
13 165 18 63 58 149 82 176 12 13 15 47 14 167 -2 136 0 150 16 154 10 3 -2 5
-27 6 -78 2 -330 20 -457 32 l-123 12 0 38 c0 40 5 43 70 41 3 0 84 -2 180 -5
96 -3 167 -4 158 -1 -11 3 -18 15 -18 30 0 16 6 24 18 25 63 4 -149 28 -263
30 l-50 0 35 11 c19 6 36 12 38 13 8 6 -62 175 -71 175 -7 -1 -34 -12 -62 -27z
m3 -1391 l2 -852 168 -3 167 -3 -182 -2 -183 -2 0 861 c0 684 3 860 13 857 9
-4 13 -186 15 -856z m-65 -1049 c-7 -2 -19 -2 -25 0 -7 3 -2 5 12 5 14 0 19
-2 13 -5z m125 -170 c-10 -2 -28 -2 -40 0 -13 2 -5 4 17 4 22 1 32 -1 23 -4z"/>
<path d="M9400 5339 c-24 -68 -29 -93 -20 -99 18 -11 -13 -20 -69 -20 -27 0
-76 -3 -110 -6 -59 -7 -61 -8 -61 -35 0 -15 -6 -30 -12 -33 -7 -2 88 -3 212
-1 124 1 209 0 190 -4 -31 -5 -35 -9 -35 -38 0 -29 -3 -33 -42 -42 -23 -6 -75
-12 -115 -12 -80 -2 -227 -15 -190 -17 22 -2 23 -5 20 -83 l-3 -82 -95 -49
c-52 -28 -134 -70 -182 -95 -49 -24 -88 -49 -88 -56 -1 -35 56 -287 65 -287 5
0 37 15 70 34 33 18 95 52 138 75 l77 43 0 -681 0 -681 159 0 c96 0 162 -4
166 -10 4 -7 -56 -10 -172 -11 -98 -1 -168 -4 -155 -6 20 -4 22 -10 22 -69 0
-59 -2 -64 -22 -65 -55 -3 81 -17 227 -24 105 -5 152 -11 138 -16 -17 -6 -23
-16 -23 -38 0 -16 6 -32 13 -35 6 -3 -82 -4 -198 -3 -115 2 -200 1 -187 -1 16
-2 22 -10 22 -28 0 -20 -5 -24 -32 -25 -52 -3 -5 -9 172 -23 91 -7 141 -14
113 -15 -29 0 -53 -5 -53 -10 0 -14 61 -185 70 -194 4 -4 38 9 76 29 69 36
118 74 135 106 6 11 9 520 10 1289 l0 1272 -29 35 c-26 33 -133 102 -158 102
-6 0 -26 -41 -44 -91z m213 -2456 c-7 -2 -21 -2 -30 0 -10 3 -4 5 12 5 17 0
24 -2 18 -5z"/>
<path d="M4236 5343 c-3 -26 -3 -50 1 -54 5 -4 9 17 11 47 3 66 -3 70 -12 7z"/>
<path d="M8720 5253 c-84 -34 -115 -52 -106 -60 2 -3 25 3 51 11 25 9 51 14
56 11 5 -4 9 -2 9 4 0 15 74 51 104 51 28 0 49 -29 40 -54 -3 -9 -1 -16 4 -16
20 0 24 40 8 65 -23 34 -61 31 -166 -12z"/>
<path d="M1752 5110 c0 -19 2 -27 5 -17 2 9 2 25 0 35 -3 9 -5 1 -5 -18z"/>
<path d="M2218 5133 c6 -2 18 -2 25 0 6 3 1 5 -13 5 -14 0 -19 -2 -12 -5z"/>
<path d="M9063 5133 c9 -2 23 -2 30 0 6 3 -1 5 -18 5 -16 0 -22 -2 -12 -5z"/>
<path d="M5440 5011 c0 -27 -4 -30 -37 -34 -21 -2 174 -4 432 -4 259 0 453 2
433 4 -32 4 -38 8 -38 28 0 20 6 24 38 28 20 2 -158 4 -395 5 l-433 2 0 -29z"/>
<path d="M3905 4890 c-316 -66 -535 -356 -576 -763 -26 -262 49 -554 187 -730
52 -67 148 -149 213 -181 101 -52 187 -71 316 -71 203 0 334 54 476 195 73 73
93 100 137 190 77 155 105 287 106 490 0 219 -29 355 -109 513 -123 242 -335
369 -610 366 -55 -1 -118 -5 -140 -9z m268 -319 c92 -45 175 -159 213 -297 25
-89 30 -337 10 -444 -29 -156 -118 -298 -220 -353 -59 -31 -203 -31 -261 0
-53 28 -127 107 -159 171 -55 108 -71 192 -71 372 0 143 3 176 23 245 49 169
140 284 254 321 58 19 155 12 211 -15z"/>
<path d="M5644 4880 c-100 -26 -163 -60 -237 -130 -69 -64 -123 -153 -151
-250 -25 -82 -37 -232 -25 -320 19 -153 125 -307 253 -370 156 -76 354 -62
471 35 l44 36 -16 -53 c-46 -157 -159 -282 -307 -337 -64 -24 -201 -44 -271
-39 l-50 3 -3 -152 -3 -153 113 0 c363 1 628 149 767 429 155 309 165 762 24
1033 -48 94 -147 195 -226 232 -120 56 -258 69 -383 36z m218 -286 c37 -19 85
-80 104 -133 17 -50 31 -242 20 -285 -9 -36 -62 -93 -107 -117 -26 -13 -59
-19 -102 -19 -55 0 -70 4 -104 29 -83 60 -125 219 -94 356 12 55 62 135 101
162 47 33 124 36 182 7z"/>
<path d="M6887 4889 c-152 -36 -293 -184 -367 -387 -57 -157 -73 -265 -73
-487 0 -360 60 -575 202 -728 147 -157 401 -193 603 -85 158 84 264 293 298
588 16 133 8 464 -14 580 -67 356 -241 532 -525 529 -47 -1 -103 -5 -124 -10z
m168 -303 c66 -28 119 -130 152 -293 26 -133 24 -424 -5 -557 -24 -112 -66
-207 -111 -250 -40 -39 -107 -47 -153 -18 -91 57 -148 268 -148 552 0 286 60
503 153 561 38 23 66 24 112 5z"/>
<path d="M8085 4886 c-211 -67 -353 -279 -411 -616 -21 -124 -15 -485 11 -600
41 -188 112 -330 204 -412 212 -189 582 -143 739 91 101 151 152 378 152 675
0 502 -138 789 -413 862 -64 17 -228 17 -282 0z m192 -306 c18 -11 46 -38 63
-61 108 -150 135 -608 51 -880 -64 -207 -213 -253 -302 -93 -111 197 -114 728
-6 941 53 102 123 137 194 93z"/>
<path d="M5423 3063 c10 -3 17 -14 17 -28 0 -19 -6 -24 -32 -28 -18 -2 161 -5
398 -5 l431 -2 -5 28 c-3 15 -10 30 -16 34 -6 4 -191 7 -411 7 -220 -1 -392
-3 -382 -6z"/>
<path d="M3690 2884 c-19 -2 -210 -8 -425 -15 -214 -6 -396 -15 -403 -18 -22
-12 133 -310 260 -500 485 -722 1306 -1220 2153 -1306 185 -19 515 -19 680 0
982 113 1840 691 2310 1555 61 110 127 251 122 256 -3 3 -353 18 -702 29
l-190 7 -30 -49 c-90 -148 -258 -341 -409 -470 -317 -271 -658 -429 -1101
-509 -142 -25 -507 -26 -655 -1 -332 56 -626 169 -885 340 -134 89 -199 141
-319 257 -117 113 -187 196 -281 330 -56 81 -74 102 -85 98 -3 -1 -21 -3 -40
-4z m363 -487 c65 -30 145 -101 192 -170 18 -27 35 -43 37 -36 3 8 30 -3 78
-31 41 -24 122 -69 179 -101 57 -32 106 -61 109 -63 2 -3 -12 -34 -32 -70
l-36 -64 -106 60 c-58 33 -109 57 -113 52 -4 -5 -18 -26 -30 -46 l-22 -37 38
-24 c21 -13 65 -39 98 -57 33 -19 61 -34 63 -36 3 -2 -68 -134 -73 -134 -1 0
-45 25 -96 55 -51 30 -98 54 -103 52 -5 -2 -22 -26 -38 -54 l-29 -51 110 -64
110 -64 -37 -66 -37 -66 -185 103 c-102 57 -184 107 -183 112 1 6 63 117 137
247 75 131 136 240 136 244 0 3 -12 -6 -28 -21 l-27 -26 -34 65 c-57 109 -143
164 -234 149 -47 -9 -132 -81 -153 -132 -43 -101 21 -210 159 -273 l60 -27
-54 -59 c-29 -32 -60 -60 -69 -62 -24 -4 -129 68 -183 127 -73 79 -102 148
-102 246 0 68 5 88 28 133 51 98 141 179 232 209 62 20 170 11 238 -20z m3420
3 c63 -32 152 -126 183 -195 50 -108 41 -209 -28 -318 -29 -46 -220 -227 -238
-227 -5 0 -111 118 -237 262 l-227 261 65 60 c159 147 241 189 359 185 55 -3
88 -10 123 -28z m-549 -305 c21 -36 37 -67 35 -69 -2 -1 -44 -26 -94 -54 -49
-29 -96 -56 -103 -61 -11 -7 -9 -17 12 -50 15 -22 30 -41 36 -41 5 0 49 25 99
55 50 30 92 55 95 55 6 0 76 -120 76 -130 0 -5 -43 -35 -95 -65 -52 -31 -95
-59 -95 -62 0 -5 46 -89 55 -101 1 -1 48 25 104 58 56 33 106 61 111 63 5 1
27 -27 49 -63 30 -49 37 -68 28 -76 -7 -6 -89 -56 -184 -112 -123 -71 -175
-97 -182 -88 -5 6 -76 126 -159 266 -82 140 -159 271 -171 292 -17 28 -19 38
-9 45 35 22 344 202 348 202 3 1 23 -28 44 -64z m-2092 -168 c125 -40 185 -77
225 -136 l23 -34 0 37 c0 28 4 36 18 36 20 0 402 -46 465 -56 l38 -6 -6 -56
c-11 -107 -3 -99 -96 -90 -46 4 -83 7 -84 5 -2 -1 -16 -121 -33 -265 -17 -145
-32 -266 -35 -268 -5 -5 -158 14 -165 20 -5 5 46 489 54 518 4 13 -5 17 -48
23 -29 3 -65 8 -79 11 -23 4 -27 0 -39 -37 -16 -49 -69 -106 -105 -115 -24 -6
-25 -10 -20 -53 11 -101 25 -315 20 -320 -7 -6 -175 48 -175 57 -13 252 -26
313 -62 300 -7 -3 -31 -60 -53 -127 -21 -66 -42 -121 -46 -121 -8 0 -152 50
-157 55 -8 7 222 666 232 663 6 -2 64 -20 128 -41z m1662 -70 c15 -45 66 -188
111 -317 46 -129 85 -241 87 -249 2 -9 -21 -21 -66 -37 -80 -27 -95 -29 -101
-11 -7 20 -90 251 -160 446 -36 101 -64 188 -62 194 3 11 119 55 147 56 10 1
24 -26 44 -82z m-208 -68 c7 -40 12 -75 9 -77 -2 -2 -52 -13 -112 -24 -59 -10
-108 -20 -109 -21 -1 -1 2 -25 8 -53 l10 -51 98 20 c55 11 105 17 113 14 15
-6 41 -137 29 -148 -4 -4 -51 -15 -104 -24 -76 -13 -98 -21 -98 -33 0 -9 10
-70 21 -135 17 -91 19 -121 10 -127 -7 -4 -44 -13 -83 -20 -54 -9 -72 -9 -78
0 -4 6 -19 82 -35 168 -15 86 -43 235 -61 331 -18 96 -32 176 -30 178 5 5 390
80 395 77 1 -2 9 -35 17 -75z m-495 -86 c0 -43 6 -199 12 -346 7 -148 10 -271
8 -273 -2 -2 -41 -4 -86 -4 l-82 0 -6 163 c-4 89 -10 246 -13 350 l-7 187 86
0 87 0 1 -77z"/>
<path d="M7245 2241 c-22 -10 -49 -28 -59 -40 -19 -21 -19 -22 0 -46 61 -78
221 -254 230 -254 15 -1 73 64 85 96 30 80 -11 173 -106 238 -45 30 -94 32
-150 6z"/>
<path d="M4805 1757 c-25 -69 -34 -101 -31 -105 3 -2 25 -7 49 -9 96 -11 107
81 14 116 -21 8 -29 8 -32 -2z"/>
<path d="M4075 2869 c-11 -17 1 -21 15 -4 8 9 8 15 2 15 -6 0 -14 -5 -17 -11z"/>
<path d="M2640 2826 c-6 -8 -27 -20 -46 -26 -29 -10 -38 -9 -63 9 -16 12 -35
21 -43 21 -7 0 2 -10 20 -21 17 -12 32 -23 32 -25 0 -10 -87 -44 -112 -44 -36
0 -49 41 -23 70 15 16 15 20 4 20 -39 0 -53 -64 -21 -93 10 -10 29 -17 43 -16
40 0 212 75 227 98 16 24 1 29 -18 7z"/>
<path d="M8590 2836 c0 -2 8 -10 18 -17 15 -13 16 -12 3 4 -13 16 -21 21 -21
13z"/>
<path d="M2564 2707 c-50 -23 -99 -48 -108 -56 -35 -30 -7 -101 40 -101 30 0
207 80 227 102 23 27 22 53 -3 78 -28 28 -53 25 -156 -23z m141 7 c21 -22 16
-46 -15 -61 -14 -6 -57 -28 -97 -47 -79 -39 -104 -44 -123 -21 -19 23 -7 49
33 68 31 16 40 17 55 6 14 -11 15 -11 4 1 -10 12 -4 19 40 42 62 32 81 34 103
12z"/>
<path d="M6930 2736 c0 -2 7 -7 16 -10 8 -3 12 -2 9 4 -6 10 -25 14 -25 6z"/>
<path d="M8525 2729 c-4 -6 -5 -12 -2 -15 2 -3 7 2 10 11 7 17 1 20 -8 4z"/>
<path d="M8520 2681 c0 -6 4 -13 10 -16 6 -3 7 1 4 9 -7 18 -14 21 -14 7z"/>
<path d="M8651 2664 c0 -11 3 -14 6 -6 3 7 2 16 -1 19 -3 4 -6 -2 -5 -13z"/>
<path d="M2173 2610 c-9 -34 -8 -38 4 -28 8 6 21 24 29 40 13 26 13 28 -4 28
-12 0 -21 -12 -29 -40z"/>
<path d="M2627 2549 c-110 -56 -131 -81 -103 -123 29 -45 55 -42 162 14 55 28
105 58 112 67 29 39 0 94 -49 92 -13 0 -68 -22 -122 -50z m151 19 c21 -21 13
-48 -20 -68 -18 -11 -38 -20 -45 -20 -7 0 -31 -13 -55 -29 -56 -37 -85 -46
-103 -31 -28 23 -18 59 21 77 34 17 37 17 66 0 17 -10 32 -16 34 -14 2 2 -7
10 -21 17 -14 7 -25 16 -25 20 0 11 94 59 116 60 11 0 25 -5 32 -12z"/>
<path d="M8460 2585 c-7 -9 -11 -17 -9 -20 3 -2 10 5 17 15 14 24 10 26 -8 5z"/>
<path d="M9060 2593 c0 -4 14 -24 30 -43 l30 -35 -14 40 c-7 22 -20 41 -29 43
-10 2 -17 0 -17 -5z"/>
<path d="M6710 2546 c0 -10 84 -55 92 -50 5 3 -12 16 -37 30 -47 24 -55 27
-55 20z"/>
<path d="M8582 2530 c0 -14 2 -19 5 -12 2 6 2 18 0 25 -3 6 -5 1 -5 -13z"/>
<path d="M4512 2498 c-6 -25 -7 -47 -2 -52 5 -5 11 12 15 38 9 61 1 69 -13 14z"/>
<path d="M8591 2474 c0 -11 3 -14 6 -6 3 7 2 16 -1 19 -3 4 -6 -2 -5 -13z"/>
<path d="M2727 2418 c-114 -70 -127 -82 -127 -118 0 -36 38 -65 72 -56 32 8
179 102 201 127 9 12 17 28 17 36 0 18 -45 63 -63 63 -7 0 -53 -24 -100 -52z
m114 22 c29 -16 24 -56 -8 -76 -16 -10 -58 -37 -94 -62 -69 -45 -94 -50 -113
-19 -14 23 0 46 46 72 19 11 59 37 89 58 62 42 55 40 80 27z"/>
<path d="M8408 2443 c7 -3 16 -2 19 1 4 3 -2 6 -13 5 -11 0 -14 -3 -6 -6z"/>
<path d="M8361 2394 c0 -11 3 -14 6 -6 3 7 2 16 -1 19 -3 4 -6 -2 -5 -13z"/>
<path d="M4783 2355 c0 -27 2 -38 4 -22 2 15 2 37 0 50 -2 12 -4 0 -4 -28z"/>
<path d="M6471 2393 c0 -5 17 -21 37 -37 l37 -30 -34 37 c-36 38 -42 42 -40
30z"/>
<path d="M8502 2350 c0 -14 2 -19 5 -12 2 6 2 18 0 25 -3 6 -5 1 -5 -13z"/>
<path d="M2900 2312 c-37 -13 -192 -126 -202 -147 -9 -19 -7 -29 6 -49 31 -48
57 -44 159 24 102 70 117 84 117 115 0 34 -48 68 -80 57z m50 -41 c14 -28 4
-46 -37 -67 -20 -11 -48 -29 -61 -42 -52 -47 -89 -64 -112 -52 -35 18 -23 59
26 89 23 14 61 41 84 59 49 36 84 41 100 13z"/>
<path d="M8328 2313 c7 -3 16 -2 19 1 4 3 -2 6 -13 5 -11 0 -14 -3 -6 -6z"/>
<path d="M5052 2250 c0 -19 2 -27 5 -17 2 9 2 25 0 35 -3 9 -5 1 -5 -18z"/>
<path d="M8282 2260 c0 -14 2 -19 5 -12 2 6 2 18 0 25 -3 6 -5 1 -5 -13z"/>
<path d="M5340 2184 c15 -71 19 -79 14 -29 -3 28 -9 54 -14 59 -5 4 -5 -9 0
-30z"/>
<path d="M5920 2200 c6 -11 13 -20 16 -20 2 0 0 9 -6 20 -6 11 -13 20 -16 20
-2 0 0 -9 6 -20z"/>
<path d="M8411 2184 c0 -11 3 -14 6 -6 3 7 2 16 -1 19 -3 4 -6 -2 -5 -13z"/>
<path d="M5630 2185 c0 -5 5 -17 10 -25 5 -8 10 -10 10 -5 0 6 -5 17 -10 25
-5 8 -10 11 -10 5z"/>
<path d="M2900 2116 c-47 -34 -91 -70 -98 -79 -20 -23 -11 -57 20 -80 23 -17
31 -19 53 -9 27 13 175 121 187 137 14 19 8 62 -10 78 -32 29 -64 19 -152 -47z
m138 32 c22 -22 12 -48 -29 -78 -32 -23 -45 -27 -59 -20 -10 6 -22 10 -27 10
-4 -1 3 -7 15 -14 l24 -13 -40 -31 c-46 -37 -86 -41 -102 -12 -12 23 -8 28
103 116 70 55 93 64 115 42z"/>
<path d="M8313 2075 c0 -27 2 -38 4 -22 2 15 2 37 0 50 -2 12 -4 0 -4 -28z"/>
<path d="M3002 1969 c-92 -72 -109 -97 -90 -133 30 -56 63 -49 174 39 79 63
94 80 94 104 0 15 -8 35 -18 44 -34 31 -66 20 -160 -54z m146 39 c7 -7 12 -20
12 -29 0 -24 -64 -71 -96 -71 -19 0 -22 -3 -13 -10 11 -6 5 -16 -26 -43 -44
-38 -66 -43 -85 -20 -16 19 -5 62 18 69 9 3 43 31 76 61 58 55 90 67 114 43z"/>
<path d="M8082 1990 c0 -14 2 -19 5 -12 2 6 2 18 0 25 -3 6 -5 1 -5 -13z"/>
<path d="M8203 1925 c0 -22 2 -30 4 -17 2 12 2 30 0 40 -3 9 -5 -1 -4 -23z"/>
<path d="M8018 1913 c6 -2 18 -2 25 0 6 3 1 5 -13 5 -14 0 -19 -2 -12 -5z"/>
<path d="M3126 1829 c-47 -44 -88 -89 -91 -100 -8 -25 17 -65 45 -74 26 -8 52
8 140 91 76 72 87 92 69 126 -32 60 -63 52 -163 -43z m134 41 c27 -27 26 -32
-20 -74 -26 -23 -46 -34 -57 -30 -13 4 -14 3 -5 -3 9 -7 4 -18 -23 -46 -41
-42 -78 -48 -95 -16 -10 18 -2 30 74 105 46 46 89 84 95 84 6 0 20 -9 31 -20z"/>
<path d="M7971 1864 c0 -11 3 -14 6 -6 3 7 2 16 -1 19 -3 4 -6 -2 -5 -13z"/>
<path d="M8101 1824 c0 -11 3 -14 6 -6 3 7 2 16 -1 19 -3 4 -6 -2 -5 -13z"/>
<path d="M3318 1790 c-32 -19 -168 -180 -168 -200 0 -28 35 -60 65 -60 18 0
45 21 97 76 106 110 114 129 73 169 -26 27 -40 30 -67 15z m60 -55 c3 -24 -3
-35 -29 -57 -18 -15 -37 -24 -42 -21 -6 3 -7 1 -3 -6 9 -14 -48 -88 -75 -96
-20 -7 -59 18 -59 36 0 21 54 69 78 70 22 0 23 2 9 8 -16 6 -13 12 24 54 33
38 47 47 68 45 21 -2 27 -9 29 -33z"/>
<path d="M7898 1783 c7 -3 16 -2 19 1 4 3 -2 6 -13 5 -11 0 -14 -3 -6 -6z"/>
<path d="M7778 1673 c6 -2 18 -2 25 0 6 3 1 5 -13 5 -14 0 -19 -2 -12 -5z"/>
<path d="M3369 1584 c-41 -47 -76 -92 -77 -100 -11 -49 33 -92 77 -76 27 10
171 179 171 201 0 33 -29 61 -64 61 -30 0 -42 -10 -107 -86z m127 58 c28 -19
24 -44 -14 -82 -21 -22 -51 -57 -67 -80 -46 -66 -88 -75 -101 -23 -5 20 0 32
25 57 17 17 49 55 71 84 38 49 61 61 86 44z"/>
<path d="M3573 1564 c-6 -3 -44 -45 -83 -95 -60 -75 -71 -94 -68 -121 4 -43
45 -66 82 -46 41 22 156 176 156 208 0 42 -46 70 -87 54z m48 -24 c10 -6 19
-20 19 -32 0 -28 -57 -88 -84 -89 -17 -1 -18 -2 -4 -6 16 -4 14 -10 -13 -49
-20 -30 -37 -44 -52 -44 -47 0 -62 44 -26 76 12 10 39 45 60 76 33 48 61 76
77 78 2 0 12 -5 23 -10z"/>
<path d="M7619 1553 c-13 -16 -12 -17 4 -4 16 13 21 21 13 21 -2 0 -10 -8 -17
-17z"/>
<path d="M7601 1514 c0 -11 3 -14 6 -6 3 7 2 16 -1 19 -3 4 -6 -2 -5 -13z"/>
<path d="M3672 1413 c-21 -27 -56 -74 -77 -106 -33 -50 -37 -60 -27 -82 17
-38 55 -52 86 -32 36 24 146 181 146 210 0 30 -29 57 -62 57 -19 0 -37 -13
-66 -47z m96 15 c19 -19 14 -41 -17 -79 -26 -31 -33 -34 -70 -31 l-40 4 14 28
c38 74 85 106 113 78z m-58 -126 c0 -5 -14 -28 -31 -51 -24 -34 -35 -42 -57
-39 -20 2 -28 9 -30 28 -4 39 31 70 78 70 22 0 40 -4 40 -8z"/>
<path d="M7480 1445 c-7 -9 -11 -17 -9 -20 3 -2 10 5 17 15 14 24 10 26 -8 5z"/>
<path d="M3838 1358 c-27 -22 -128 -188 -128 -211 0 -48 45 -75 89 -53 16 9
31 22 35 31 3 8 27 48 52 87 51 78 60 122 29 144 -23 17 -56 18 -77 2z m66
-24 c20 -20 20 -22 -7 -63 -12 -19 -38 -61 -58 -95 -37 -63 -66 -79 -95 -56
-21 18 -18 35 19 90 17 27 44 69 59 94 29 49 54 58 82 30z"/>
<path d="M7345 1360 c-3 -6 1 -7 9 -4 18 7 21 14 7 14 -6 0 -13 -4 -16 -10z"/>
<path d="M7572 1333 c-15 -48 -8 -55 8 -8 7 20 10 38 8 41 -3 2 -10 -13 -16
-33z"/>
<path d="M7332 1320 c0 -14 2 -19 5 -12 2 6 2 18 0 25 -3 6 -5 1 -5 -13z"/>
<path d="M3968 1273 c-30 -34 -108 -190 -108 -215 0 -50 70 -78 102 -40 30 34
108 190 108 215 0 48 -71 75 -102 40z m66 -19 c22 -21 20 -35 -8 -76 -13 -20
-29 -51 -35 -71 -24 -71 -69 -105 -99 -75 -18 18 -15 40 13 80 14 20 25 43 25
50 1 22 59 108 74 108 8 0 22 -7 30 -16z"/>
<path d="M3953 1143 c9 -2 23 -2 30 0 6 3 -1 5 -18 5 -16 0 -22 -2 -12 -5z"/>
<path d="M7196 1264 c-17 -17 -22 -59 -7 -68 4 -3 6 6 3 19 -8 46 43 74 78 43
12 -11 12 -10 1 5 -17 21 -54 22 -75 1z"/>
<path d="M4137 1199 c-23 -13 -117 -201 -117 -233 0 -47 71 -74 103 -38 19 21
107 201 107 219 0 18 -45 63 -62 63 -7 0 -21 -5 -31 -11z m63 -39 c10 -19 8
-27 -29 -90 -5 -8 -17 -35 -27 -60 -24 -60 -46 -84 -72 -76 -33 11 -37 43 -9
85 13 20 27 50 31 67 4 16 15 44 26 62 23 38 63 44 80 12z"/>
<path d="M7062 1194 c-14 -10 -21 -24 -21 -42 l2 -27 4 28 c6 39 46 57 73 32
24 -21 27 -14 4 9 -19 20 -34 20 -62 0z"/>
<path d="M4277 1118 c-13 -13 -44 -67 -68 -121 -41 -93 -42 -100 -28 -125 12
-22 22 -27 54 -27 l40 0 48 98 c63 132 65 140 33 171 -31 32 -48 33 -79 4z
m72 -38 c4 -35 -27 -90 -48 -83 -13 4 -13 3 -2 -5 11 -8 11 -18 -3 -60 -20
-60 -37 -76 -70 -68 -35 9 -39 32 -14 79 12 23 30 64 40 91 23 63 36 78 67 74
19 -2 27 -10 30 -28z"/>
<path d="M7159 1122 c7 -13 6 -23 -2 -32 -10 -12 -9 -12 5 -1 14 10 15 18 7
32 -5 10 -12 19 -15 19 -2 0 0 -8 5 -18z"/>
<path d="M6900 1104 c-14 -37 -11 -43 6 -11 17 31 53 36 78 11 9 -8 16 -12 16
-7 0 19 -25 33 -57 33 -27 0 -35 -5 -43 -26z"/>
<path d="M7006 1055 c4 -16 13 -39 21 -50 14 -19 15 -19 8 5 -4 14 -14 36 -21
50 l-14 25 6 -30z"/>
<path d="M4444 1063 c-16 -11 -47 -76 -78 -161 -23 -64 -25 -77 -13 -100 10
-23 19 -27 52 -27 46 0 51 8 107 154 29 77 31 85 17 110 -15 26 -62 40 -85 24z
m61 -33 c17 -19 17 -21 -7 -72 -14 -29 -31 -74 -38 -100 -7 -26 -19 -53 -26
-59 -17 -14 -60 -4 -68 17 -7 19 19 73 40 81 12 4 13 8 3 13 -9 6 -7 22 10 69
29 75 52 89 86 51z"/>
<path d="M4438 913 c7 -3 16 -2 19 1 4 3 -2 6 -13 5 -11 0 -14 -3 -6 -6z"/>
<path d="M6752 1054 c-29 -20 -27 -44 12 -138 30 -73 33 -77 39 -50 4 16 16
40 27 54 20 25 20 25 36 5 l17 -20 -8 20 c-4 11 -14 40 -22 65 -15 45 -45 80
-67 80 -6 0 -22 -7 -34 -16z m61 -7 c29 -21 33 -80 7 -122 -27 -44 -41 -36
-65 41 -16 52 -16 56 0 75 21 22 35 24 58 6z"/>
<path d="M6901 1055 c0 -5 6 -21 14 -35 8 -14 14 -20 14 -15 0 6 -6 21 -14 35
-8 14 -14 21 -14 15z"/>
<path d="M7126 1035 c-9 -26 -7 -32 5 -12 6 10 9 21 6 23 -2 3 -7 -2 -11 -11z"/>
<path d="M7216 1000 c8 -43 14 -51 14 -19 0 13 -5 31 -10 39 -7 11 -8 5 -4
-20z"/>
<path d="M6602 1004 c-12 -8 -22 -23 -22 -32 0 -13 4 -11 16 6 11 16 24 22 42
20 22 -2 30 -11 41 -48 16 -53 33 -91 38 -87 9 9 -42 129 -60 142 -27 19 -28
19 -55 -1z"/>
<path d="M4596 994 c-20 -19 -79 -206 -74 -235 2 -12 15 -31 31 -42 l27 -21
28 20 c27 21 57 92 83 201 11 48 10 55 -6 73 -22 24 -67 26 -89 4z m78 -26 c7
-12 5 -29 -11 -65 -12 -26 -24 -65 -27 -87 -7 -52 -32 -88 -58 -84 -35 5 -44
31 -26 75 8 21 21 61 27 88 16 66 37 97 63 93 12 -2 26 -11 32 -20z"/>
<path d="M4590 850 c-8 -5 -10 -10 -5 -10 6 0 17 5 25 10 8 5 11 10 5 10 -5 0
-17 -5 -25 -10z"/>
<path d="M6931 985 c-1 -20 26 -58 33 -46 4 6 3 11 -2 11 -5 0 -14 10 -20 23
-6 12 -11 18 -11 12z"/>
<path d="M4748 953 c-25 -28 -69 -233 -56 -258 20 -37 58 -47 92 -22 18 13 66
186 66 238 0 51 -69 79 -102 42z m67 -16 c24 -18 13 -80 -18 -102 -18 -13 -19
-15 -4 -15 15 0 17 -6 11 -37 -4 -21 -13 -53 -20 -71 -11 -28 -18 -33 -41 -30
-26 3 -28 6 -27 43 3 78 27 188 45 206 23 23 29 23 54 6z"/>
<path d="M4745 810 c-3 -6 1 -7 9 -4 18 7 21 14 7 14 -6 0 -13 -4 -16 -10z"/>
<path d="M6422 948 c-7 -7 -12 -19 -12 -27 0 -11 5 -9 16 7 25 36 68 22 87
-28 5 -13 6 -13 6 0 1 9 -6 26 -15 38 -17 24 -62 30 -82 10z"/>
<path d="M7130 956 c0 -2 8 -10 18 -17 15 -13 16 -12 3 4 -13 16 -21 21 -21
13z"/>
<path d="M6581 940 c0 -8 4 -22 9 -30 12 -18 12 -2 0 25 -6 13 -9 15 -9 5z"/>
<path d="M4933 920 c-24 -10 -24 -8 -53 -154 -18 -88 -19 -102 -6 -121 19 -28
48 -36 78 -21 26 13 54 105 65 212 5 56 4 62 -18 78 -26 18 -34 19 -66 6z m61
-65 c-2 -62 -25 -189 -36 -202 -15 -18 -55 -16 -66 3 -9 17 4 94 17 94 3 0 6
26 6 58 0 80 8 94 47 90 31 -3 33 -5 32 -43z"/>
<path d="M6270 910 c-25 -25 -25 -19 1 -138 25 -115 39 -142 77 -142 58 0 63
32 32 174 -27 121 -61 155 -110 106z m69 -9 c9 -6 14 -28 15 -60 1 -28 4 -51
7 -51 9 0 29 -73 29 -104 0 -38 -42 -57 -70 -31 -11 10 -20 28 -20 40 0 12 -9
58 -19 100 -14 55 -17 84 -10 97 10 19 45 24 68 9z"/>
<path d="M5086 877 c-17 -17 -26 -47 -40 -130 -16 -99 -16 -110 -2 -132 19
-29 66 -34 89 -10 15 15 33 98 44 201 5 56 4 62 -18 78 -31 22 -46 20 -73 -7z
m64 -12 c19 -23 -7 -222 -32 -247 -18 -18 -22 -18 -41 -5 -17 12 -21 24 -20
52 2 21 7 43 13 50 5 6 7 15 4 18 -4 3 -3 31 1 62 9 75 44 107 75 70z"/>
<path d="M5120 750 c-9 -6 -10 -10 -3 -10 6 0 15 5 18 10 8 12 4 12 -15 0z"/>
<path d="M6411 895 c-1 -21 55 -193 68 -209 29 -35 91 -9 91 38 0 12 -10 53
-23 91 -18 53 -25 64 -29 47 -3 -12 0 -26 7 -32 8 -7 19 -36 26 -65 14 -62 4
-85 -37 -85 -45 0 -59 76 -23 126 l21 29 -26 -28 -26 -29 -14 34 c-7 18 -18
47 -24 63 -6 17 -11 26 -11 20z"/>
<path d="M6086 867 c-13 -20 -14 -34 -1 -122 18 -121 27 -143 60 -151 36 -9
65 19 65 62 0 60 -22 189 -36 212 -20 30 -68 30 -88 -1z m71 1 c26 -34 24 -67
-8 -103 -19 -21 -36 -32 -41 -27 -16 16 -22 110 -8 127 15 18 44 20 57 3z m38
-169 c11 -81 -14 -115 -61 -84 -19 12 -24 24 -24 58 0 35 5 46 32 69 38 31 44
26 53 -43z"/>
<path d="M5273 869 c-29 -11 -32 -17 -42 -100 -21 -166 -21 -160 4 -185 29
-29 45 -30 74 -6 30 24 58 235 36 268 -16 25 -43 34 -72 23z m57 -34 c10 -12
10 -25 1 -59 -6 -25 -11 -72 -11 -105 0 -81 -34 -115 -75 -74 -23 23 -12 72
23 101 22 19 23 22 5 13 -22 -11 -23 -10 -23 44 0 31 5 65 10 76 13 23 52 25
70 4z"/>
<path d="M6989 868 c7 -10 23 -17 35 -17 20 1 20 2 1 6 -11 3 -27 10 -35 17
-13 10 -13 9 -1 -6z"/>
<path d="M5915 853 c-15 -14 -16 -29 -10 -102 12 -157 22 -181 78 -181 44 0
52 30 40 159 -5 61 -15 117 -23 125 -17 21 -64 20 -85 -1z m83 -56 c3 -30 -2
-41 -30 -66 -38 -34 -43 -29 -51 43 -4 39 -1 52 15 68 17 17 22 18 41 5 14 -9
23 -27 25 -50z m16 -117 c8 -66 -4 -100 -34 -100 -29 0 -50 28 -50 68 0 30 6
43 32 64 18 15 36 28 39 28 4 0 9 -27 13 -60z"/>
<path d="M6655 848 c-16 -23 -16 -23 -30 -4 -19 25 -19 21 1 -40 22 -65 30
-74 70 -74 46 0 61 28 44 82 -6 22 -13 38 -15 36 -3 -2 1 -20 7 -41 14 -44 -1
-67 -42 -67 -24 0 -30 6 -40 35 -10 31 -9 39 10 65 12 16 19 30 16 30 -3 0
-12 -10 -21 -22z"/>
<path d="M5418 843 c-12 -13 -18 -51 -23 -134 -7 -110 -6 -118 14 -138 26 -26
55 -27 79 -3 26 26 39 235 16 270 -18 27 -64 30 -86 5z m69 -15 c15 -24 13
-211 -3 -235 -16 -25 -43 -30 -62 -11 -15 15 -16 84 -1 94 8 4 8 9 0 17 -16
16 -13 99 5 125 17 24 48 29 61 10z"/>
<path d="M5582 844 c-21 -14 -22 -23 -22 -127 0 -70 5 -121 13 -137 16 -32 61
-39 89 -13 19 17 20 27 16 137 -5 109 -7 121 -28 138 -27 22 -39 23 -68 2z
m63 -20 c11 -12 15 -31 13 -68 -1 -28 1 -74 6 -103 7 -45 5 -54 -13 -72 -16
-16 -26 -18 -43 -12 -20 7 -23 16 -25 62 -1 30 -5 80 -9 112 -6 48 -4 61 11
77 22 24 38 25 60 4z"/>
<path d="M5754 843 c-15 -15 -16 -32 -11 -130 4 -62 11 -122 17 -132 15 -29
47 -35 77 -16 l26 17 -7 121 c-4 91 -10 125 -23 139 -20 23 -56 23 -79 1z m76
-22 c20 -38 12 -69 -25 -97 -20 -15 -38 -24 -42 -21 -13 14 -15 107 -3 122 18
21 57 19 70 -4z m14 -122 c10 -50 7 -104 -6 -117 -18 -18 -56 -14 -68 7 -20
38 -12 78 23 110 17 17 35 31 38 31 4 0 9 -14 13 -31z"/>
<path d="M6901 834 c0 -11 3 -14 6 -6 3 7 2 16 -1 19 -3 4 -6 -2 -5 -13z"/>
<path d="M6848 783 c7 -3 16 -2 19 1 4 3 -2 6 -13 5 -11 0 -14 -3 -6 -6z"/>
</g>
</svg>
